<?xml version="1.0" encoding="UTF-8"?>
<!DOCTYPE svg PUBLIC "-//W3C//DTD SVG 1.1//EN" "http://www.w3.org/Graphics/SVG/1.1/DTD/svg11.dtd">
<svg xmlns="http://www.w3.org/2000/svg" version="1.1" width="691px" height="572px" style="shape-rendering:geometricPrecision; text-rendering:geometricPrecision; image-rendering:optimizeQuality; fill-rule:evenodd; clip-rule:evenodd" xmlns:xlink="http://www.w3.org/1999/xlink">
<g><path style="opacity:0.912" fill="#000000" d="M 78.5,4.5 C 92.2985,3.17685 105.632,5.01018 118.5,10C 146.395,22.5666 167.895,42.0666 183,68.5C 200.338,94.5102 223.172,114.01 251.5,127C 288.576,141.853 326.909,152.186 366.5,158C 416.859,166.095 467.526,168.761 518.5,166C 567.504,164.227 616.504,162.394 665.5,160.5C 672.447,160.546 679.114,161.879 685.5,164.5C 688.175,169.988 687.675,175.321 684,180.5C 657.92,210.299 636.587,243.299 620,279.5C 611.84,302.435 608.34,326.102 609.5,350.5C 609.643,392.737 618.476,433.07 636,471.5C 647.061,495.973 660.394,518.973 676,540.5C 679.132,547.889 680.132,555.555 679,563.5C 676.054,565.573 672.72,566.573 669,566.5C 663.419,566.103 657.919,565.269 652.5,564C 631.017,553.094 610.017,541.428 589.5,529C 547.564,497.695 501.564,473.695 451.5,457C 402.362,441.832 354.362,444.832 307.5,466C 288.313,477.429 268.646,488.096 248.5,498C 215.312,514.41 184.312,511.077 155.5,488C 147.409,480.986 142.575,472.153 141,461.5C 140.333,453.167 140.333,444.833 141,436.5C 145.767,416.667 149.767,396.667 153,376.5C 158.641,344.136 158.641,311.803 153,279.5C 149.728,260.134 145.061,241.134 139,222.5C 130.167,201.667 115.333,186.833 94.5,178C 72.803,173.222 53.1363,164.222 35.5,151C 17.8824,136.27 7.71576,117.436 5,94.5C 0.739184,65.526 9.57252,41.3593 31.5,22C 46.0274,12.8825 61.6941,7.0492 78.5,4.5 Z"/></g>
<g><path style="opacity:1" fill="#da0802" d="M 553.5,490.5 C 553.824,486.445 553.491,482.445 552.5,478.5C 548.933,476.122 545.599,473.455 542.5,470.5C 541.548,468.955 541.215,467.288 541.5,465.5C 540.5,465.5 539.5,465.5 538.5,465.5C 538.21,460.885 535.877,458.218 531.5,457.5C 531.623,453.96 529.957,451.96 526.5,451.5C 524.924,447.883 523.257,444.216 521.5,440.5C 519.132,438.777 516.466,438.11 513.5,438.5C 513.5,437.167 513.5,435.833 513.5,434.5C 511.158,434.496 509.158,433.663 507.5,432C 504.518,431.502 501.518,431.335 498.5,431.5C 498.5,430.5 498.5,429.5 498.5,428.5C 493.543,425.931 488.21,424.931 482.5,425.5C 482.5,424.5 482.5,423.5 482.5,422.5C 463.309,419.41 444.309,415.91 425.5,412C 412.455,410.997 399.789,411.83 387.5,414.5C 387.5,415.5 387.5,416.5 387.5,417.5C 382.786,417.353 378.119,417.686 373.5,418.5C 373.799,420.604 373.466,422.604 372.5,424.5C 369.841,426.664 366.841,427.998 363.5,428.5C 363.5,431.833 363.5,435.167 363.5,438.5C 345.544,440.931 328.21,445.598 311.5,452.5C 310.523,449.713 310.19,446.713 310.5,443.5C 305.489,443.334 300.489,443.501 295.5,444C 293.337,444.245 291.67,445.245 290.5,447C 286.181,447.76 281.848,448.427 277.5,449C 274.807,449.343 272.807,450.676 271.5,453C 268.568,453.953 265.568,454.453 262.5,454.5C 262.5,455.5 262.5,456.5 262.5,457.5C 258.464,458.687 254.798,460.687 251.5,463.5C 249.604,464.466 247.604,464.799 245.5,464.5C 231.497,465.398 217.497,466.398 203.5,467.5C 199.465,467.387 195.465,467.054 191.5,466.5C 191.5,465.5 191.5,464.5 191.5,463.5C 189.508,463.672 187.842,463.005 186.5,461.5C 185.686,459.234 185.186,456.9 185,454.5C 183.795,453.929 182.628,453.262 181.5,452.5C 183.798,443.943 185.465,435.277 186.5,426.5C 187.5,426.5 188.5,426.5 189.5,426.5C 189.375,420.797 189.708,415.13 190.5,409.5C 191.5,409.5 192.5,409.5 193.5,409.5C 193.5,404.833 193.5,400.167 193.5,395.5C 181.5,395.167 181.5,394.833 193.5,394.5C 193.803,389.57 193.469,384.737 192.5,380C 194.278,368.623 194.945,357.123 194.5,345.5C 192.833,345.5 191.167,345.5 189.5,345.5C 189.5,344.5 189.5,343.5 189.5,342.5C 191.167,342.5 192.833,342.5 194.5,342.5C 193.9,330.829 193.233,319.163 192.5,307.5C 191.5,307.5 190.5,307.5 189.5,307.5C 189.5,305.5 189.5,303.5 189.5,301.5C 188.167,301.5 186.833,301.5 185.5,301.5C 185.5,297.5 185.5,293.5 185.5,289.5C 183.833,289.5 182.167,289.5 180.5,289.5C 179.459,273.351 177.459,257.351 174.5,241.5C 169.146,241.431 163.813,241.098 158.5,240.5C 159.276,246.821 159.942,253.154 160.5,259.5C 157.809,246.414 154.309,233.414 150,220.5C 138.707,193.372 119.207,175.039 91.5,165.5C 90.8333,165.5 90.5,165.167 90.5,164.5C 92.8333,164.5 95.1667,164.5 97.5,164.5C 97.3433,163.127 97.51,161.793 98,160.5C 102.76,154.785 108.093,149.785 114,145.5C 115.13,143.067 116.296,140.734 117.5,138.5C 122.259,136.028 124.926,132.028 125.5,126.5C 126.833,126.5 128.167,126.5 129.5,126.5C 129.5,125.5 129.5,124.5 129.5,123.5C 130.5,123.5 131.5,123.5 132.5,123.5C 133.043,119.985 134.043,116.652 135.5,113.5C 136.5,113.5 137.5,113.5 138.5,113.5C 139.092,110.873 139.425,108.206 139.5,105.5C 141.288,105.785 142.955,105.452 144.5,104.5C 147.002,98.1505 150.502,92.4838 155,87.5C 155.483,86.552 155.649,85.552 155.5,84.5C 154.178,84.33 153.011,84.6634 152,85.5C 150.878,87.4205 150.044,89.4205 149.5,91.5C 144.685,90.9733 141.352,92.9733 139.5,97.5C 138.675,98.3857 137.675,98.719 136.5,98.5C 136.579,99.9305 136.246,101.264 135.5,102.5C 132.629,105.269 129.296,106.936 125.5,107.5C 125.5,108.833 125.5,110.167 125.5,111.5C 124.167,111.5 122.833,111.5 121.5,111.5C 122.144,116.385 120.144,119.552 115.5,121C 114.809,122.067 114.309,123.234 114,124.5C 109.473,127.694 105.639,131.527 102.5,136C 101.552,136.483 100.552,136.649 99.5,136.5C 99.5,137.5 99.5,138.5 99.5,139.5C 98.448,139.351 97.448,139.517 96.5,140C 92.5294,143.332 88.5294,146.666 84.5,150C 83.6634,151.011 83.33,152.178 83.5,153.5C 79.6197,155.125 75.9531,157.125 72.5,159.5C 25.9091,140.654 8.07579,106.654 19,57.5C 27.4521,36.8408 42.6187,24.0075 64.5,19C 82.9195,13.4731 100.919,14.4731 118.5,22C 143.225,34.0585 162.059,52.2252 175,76.5C 194.889,105.386 221.056,126.552 253.5,140C 313.331,161.3 374.998,173.633 438.5,177C 513.545,177.246 588.545,175.412 663.5,171.5C 667.039,171.557 670.539,171.891 674,172.5C 675.257,172.85 675.591,173.517 675,174.5C 648.915,203.946 627.582,236.613 611,272.5C 601.446,297.582 597.28,323.582 598.5,350.5C 599.349,408.212 614.515,461.879 644,511.5C 650.503,522.509 657.503,533.176 665,543.5C 666.881,547.307 668.047,551.307 668.5,555.5C 664.812,555.219 661.145,554.719 657.5,554C 636.017,543.094 615.017,531.428 594.5,519C 587.216,514.05 580.216,508.717 573.5,503C 566.601,499.059 559.934,494.892 553.5,490.5 Z"/></g>
<g><path style="opacity:1" fill="#af0904" d="M 90.5,164.5 C 88.0971,164.552 85.7638,164.219 83.5,163.5C 79.2378,163.516 75.5711,162.183 72.5,159.5C 75.9531,157.125 79.6197,155.125 83.5,153.5C 83.33,152.178 83.6634,151.011 84.5,150C 88.5294,146.666 92.5294,143.332 96.5,140C 97.448,139.517 98.448,139.351 99.5,139.5C 99.5,138.5 99.5,137.5 99.5,136.5C 100.552,136.649 101.552,136.483 102.5,136C 105.639,131.527 109.473,127.694 114,124.5C 114.309,123.234 114.809,122.067 115.5,121C 120.144,119.552 122.144,116.385 121.5,111.5C 122.833,111.5 124.167,111.5 125.5,111.5C 125.5,110.167 125.5,108.833 125.5,107.5C 129.296,106.936 132.629,105.269 135.5,102.5C 136.246,101.264 136.579,99.9305 136.5,98.5C 137.675,98.719 138.675,98.3857 139.5,97.5C 141.352,92.9733 144.685,90.9733 149.5,91.5C 150.044,89.4205 150.878,87.4205 152,85.5C 153.011,84.6634 154.178,84.33 155.5,84.5C 155.649,85.552 155.483,86.552 155,87.5C 150.502,92.4838 147.002,98.1505 144.5,104.5C 142.955,105.452 141.288,105.785 139.5,105.5C 139.425,108.206 139.092,110.873 138.5,113.5C 137.5,113.5 136.5,113.5 135.5,113.5C 134.043,116.652 133.043,119.985 132.5,123.5C 131.5,123.5 130.5,123.5 129.5,123.5C 129.5,124.5 129.5,125.5 129.5,126.5C 128.167,126.5 126.833,126.5 125.5,126.5C 124.926,132.028 122.259,136.028 117.5,138.5C 116.296,140.734 115.13,143.067 114,145.5C 108.093,149.785 102.76,154.785 98,160.5C 97.51,161.793 97.3433,163.127 97.5,164.5C 95.1667,164.5 92.8333,164.5 90.5,164.5 Z"/></g>
<g><path style="opacity:1" fill="#5c0101" d="M 160.5,138.5 C 161.16,133.672 159.16,131.839 154.5,133C 152.789,134.133 152.289,135.633 153,137.5C 154.789,139.229 156.956,139.896 159.5,139.5C 155.117,141.387 152.117,140.053 150.5,135.5C 150.59,133.575 151.59,132.408 153.5,132C 156.146,131.503 158.813,131.336 161.5,131.5C 161.802,134.059 161.468,136.393 160.5,138.5 Z"/></g>
<g><path style="opacity:1" fill="#220200" d="M 160.5,138.5 C 159.833,138.5 159.5,138.833 159.5,139.5C 156.956,139.896 154.789,139.229 153,137.5C 152.289,135.633 152.789,134.133 154.5,133C 159.16,131.839 161.16,133.672 160.5,138.5 Z"/></g>
<g><path style="opacity:1" fill="#4c0303" d="M 83.5,163.5 C 85.7638,164.219 88.0971,164.552 90.5,164.5C 90.5,165.167 90.8333,165.5 91.5,165.5C 88.467,166.718 85.8004,166.052 83.5,163.5 Z"/></g>
<g><path style="opacity:1" fill="#650101" d="M 622.5,198.5 C 623.5,198.5 624.5,198.5 625.5,198.5C 625.663,200.857 625.497,203.19 625,205.5C 617.91,207.712 614.743,205.046 615.5,197.5C 618.059,197.198 620.393,197.532 622.5,198.5 Z"/></g>
<g><path style="opacity:1" fill="#1c0100" d="M 622.5,198.5 C 625.807,203.326 624.473,205.16 618.5,204C 616.508,199.848 617.841,198.015 622.5,198.5 Z"/></g>
<g><path style="opacity:1" fill="#bf0a04" d="M 149.5,211.5 C 152.044,211.104 154.211,211.771 156,213.5C 157.673,218.207 159.339,222.874 161,227.5C 161.936,231.114 162.436,234.78 162.5,238.5C 160.5,238.5 158.5,238.5 156.5,238.5C 155.475,231.125 153.309,224.125 150,217.5C 149.505,215.527 149.338,213.527 149.5,211.5 Z"/></g>
<g><path style="opacity:1" fill="#8e0302" d="M 350.5,298.5 C 350.167,298.5 349.833,298.5 349.5,298.5C 344.608,293.681 339.441,293.348 334,297.5C 333.502,300.817 333.335,304.15 333.5,307.5C 332.883,307.389 332.383,307.056 332,306.5C 331.371,302.129 331.537,297.796 332.5,293.5C 336.846,293.334 341.179,293.501 345.5,294C 347.923,294.697 349.589,296.197 350.5,298.5 Z"/></g>
<g><path style="opacity:1" fill="#ab0a05" d="M 245.5,464.5 C 247.604,464.799 249.604,464.466 251.5,463.5C 254.798,460.687 258.464,458.687 262.5,457.5C 262.5,456.5 262.5,455.5 262.5,454.5C 265.568,454.453 268.568,453.953 271.5,453C 272.807,450.676 274.807,449.343 277.5,449C 281.848,448.427 286.181,447.76 290.5,447C 291.67,445.245 293.337,444.245 295.5,444C 300.489,443.501 305.489,443.334 310.5,443.5C 310.19,446.713 310.523,449.713 311.5,452.5C 291.744,462.212 272.411,472.712 253.5,484C 242.625,489.296 231.291,493.629 219.5,497C 192.881,500.328 171.381,491.495 155,470.5C 154.381,467.968 153.381,465.635 152,463.5C 151.333,453.167 151.333,442.833 152,432.5C 155.619,419.978 158.619,407.312 161,394.5C 163.535,372.65 166.035,350.817 168.5,329C 168.746,322.909 168.413,316.743 167.5,310.5C 168.868,306.244 170.368,301.911 172,297.5C 174.869,294.682 176.369,295.348 176.5,299.5C 178.39,299.297 179.89,299.963 181,301.5C 181.988,304.638 182.822,307.805 183.5,311C 182.367,315.245 182.7,319.079 184.5,322.5C 185.991,323.244 187.491,323.91 189,324.5C 190.773,327.287 191.94,330.287 192.5,333.5C 190.473,333.338 188.473,333.505 186.5,334C 187.167,334.333 187.833,334.667 188.5,335C 186.46,336.373 184.794,338.04 183.5,340C 184.502,341.766 184.168,343.433 182.5,345C 183.573,346.25 183.573,347.584 182.5,349C 184.544,351.057 185.71,353.557 186,356.5C 186.925,357.047 187.758,357.713 188.5,358.5C 187.167,361.167 187.167,363.833 188.5,366.5C 185.471,368.682 183.471,371.515 182.5,375C 184.223,380.398 184.723,385.898 184,391.5C 182.599,393.192 180.766,393.859 178.5,393.5C 178.343,394.873 178.51,396.207 179,397.5C 180.011,396.663 181.178,396.33 182.5,396.5C 182.915,398.747 183.582,400.914 184.5,403C 182.979,407.187 180.645,410.854 177.5,414C 179.25,415.754 179.917,417.921 179.5,420.5C 177.089,420.863 175.589,419.863 175,417.5C 173.331,419.169 172.498,421.169 172.5,423.5C 174.401,423.567 176.234,423.233 178,422.5C 180.734,423.291 181.068,424.624 179,426.5C 178.502,429.817 178.335,433.15 178.5,436.5C 177.325,436.281 176.325,436.614 175.5,437.5C 178.174,438.499 178.841,440.166 177.5,442.5C 172.767,442.566 170.434,444.899 170.5,449.5C 172.857,449.337 175.19,449.503 177.5,450C 175.993,450.837 175.493,452.004 176,453.5C 178,454.167 180,454.833 182,455.5C 182.758,460.187 184.924,464.021 188.5,467C 194.757,468.317 201.091,468.817 207.5,468.5C 206.891,472.06 208.391,474.06 212,474.5C 214.034,473.056 214.868,471.056 214.5,468.5C 218.375,468.644 222.208,468.31 226,467.5C 227.711,467.439 229.044,468.106 230,469.5C 230.833,468.667 231.667,467.833 232.5,467C 237.28,467.108 241.614,466.275 245.5,464.5 Z"/></g>
<g><path style="opacity:1" fill="#120200" d="M 349.5,298.5 C 349.5,301.5 349.5,304.5 349.5,307.5C 349.67,308.822 349.337,309.989 348.5,311C 342.772,312.441 337.772,311.274 333.5,307.5C 333.335,304.15 333.502,300.817 334,297.5C 339.441,293.348 344.608,293.681 349.5,298.5 Z"/></g>
<g><path style="opacity:1" fill="#5a0101" d="M 349.5,298.5 C 349.833,298.5 350.167,298.5 350.5,298.5C 351.468,300.607 351.802,302.941 351.5,305.5C 350.833,306.167 350.167,306.833 349.5,307.5C 349.5,304.5 349.5,301.5 349.5,298.5 Z"/></g>
<g><path style="opacity:1" fill="#950402" d="M 351.5,305.5 C 351.831,311.333 348.998,313.999 343,313.5C 338.173,313.764 335.007,311.764 333.5,307.5C 337.772,311.274 342.772,312.441 348.5,311C 349.337,309.989 349.67,308.822 349.5,307.5C 350.167,306.833 350.833,306.167 351.5,305.5 Z"/></g>
<g><path style="opacity:1" fill="#ba0a04" d="M 245.5,464.5 C 241.614,466.275 237.28,467.108 232.5,467C 231.667,467.833 230.833,468.667 230,469.5C 229.044,468.106 227.711,467.439 226,467.5C 222.208,468.31 218.375,468.644 214.5,468.5C 214.868,471.056 214.034,473.056 212,474.5C 208.391,474.06 206.891,472.06 207.5,468.5C 201.091,468.817 194.757,468.317 188.5,467C 184.924,464.021 182.758,460.187 182,455.5C 180,454.833 178,454.167 176,453.5C 175.493,452.004 175.993,450.837 177.5,450C 175.19,449.503 172.857,449.337 170.5,449.5C 170.434,444.899 172.767,442.566 177.5,442.5C 178.841,440.166 178.174,438.499 175.5,437.5C 176.325,436.614 177.325,436.281 178.5,436.5C 178.335,433.15 178.502,429.817 179,426.5C 181.068,424.624 180.734,423.291 178,422.5C 176.234,423.233 174.401,423.567 172.5,423.5C 172.498,421.169 173.331,419.169 175,417.5C 175.589,419.863 177.089,420.863 179.5,420.5C 179.917,417.921 179.25,415.754 177.5,414C 180.645,410.854 182.979,407.187 184.5,403C 183.582,400.914 182.915,398.747 182.5,396.5C 181.178,396.33 180.011,396.663 179,397.5C 178.51,396.207 178.343,394.873 178.5,393.5C 180.766,393.859 182.599,393.192 184,391.5C 184.723,385.898 184.223,380.398 182.5,375C 183.471,371.515 185.471,368.682 188.5,366.5C 187.167,363.833 187.167,361.167 188.5,358.5C 187.758,357.713 186.925,357.047 186,356.5C 185.71,353.557 184.544,351.057 182.5,349C 183.573,347.584 183.573,346.25 182.5,345C 184.168,343.433 184.502,341.766 183.5,340C 184.794,338.04 186.46,336.373 188.5,335C 187.833,334.667 187.167,334.333 186.5,334C 188.473,333.505 190.473,333.338 192.5,333.5C 191.94,330.287 190.773,327.287 189,324.5C 187.491,323.91 185.991,323.244 184.5,322.5C 182.7,319.079 182.367,315.245 183.5,311C 182.822,307.805 181.988,304.638 181,301.5C 179.89,299.963 178.39,299.297 176.5,299.5C 176.369,295.348 174.869,294.682 172,297.5C 170.368,301.911 168.868,306.244 167.5,310.5C 166.578,293.305 164.245,276.305 160.5,259.5C 159.942,253.154 159.276,246.821 158.5,240.5C 163.813,241.098 169.146,241.431 174.5,241.5C 177.459,257.351 179.459,273.351 180.5,289.5C 182.167,289.5 183.833,289.5 185.5,289.5C 185.5,293.5 185.5,297.5 185.5,301.5C 186.833,301.5 188.167,301.5 189.5,301.5C 189.5,303.5 189.5,305.5 189.5,307.5C 190.5,307.5 191.5,307.5 192.5,307.5C 193.233,319.163 193.9,330.829 194.5,342.5C 192.833,342.5 191.167,342.5 189.5,342.5C 189.5,343.5 189.5,344.5 189.5,345.5C 191.167,345.5 192.833,345.5 194.5,345.5C 194.945,357.123 194.278,368.623 192.5,380C 193.469,384.737 193.803,389.57 193.5,394.5C 181.5,394.833 181.5,395.167 193.5,395.5C 193.5,400.167 193.5,404.833 193.5,409.5C 192.5,409.5 191.5,409.5 190.5,409.5C 189.708,415.13 189.375,420.797 189.5,426.5C 188.5,426.5 187.5,426.5 186.5,426.5C 185.465,435.277 183.798,443.943 181.5,452.5C 182.628,453.262 183.795,453.929 185,454.5C 185.186,456.9 185.686,459.234 186.5,461.5C 187.842,463.005 189.508,463.672 191.5,463.5C 191.5,464.5 191.5,465.5 191.5,466.5C 195.465,467.054 199.465,467.387 203.5,467.5C 217.497,466.398 231.497,465.398 245.5,464.5 Z"/></g>
<g><path style="opacity:1" fill="#d30902" d="M 553.5,490.5 C 551.847,490.34 550.514,489.674 549.5,488.5C 550.629,486.372 550.796,484.039 550,481.5C 542.197,477.266 536.697,470.933 533.5,462.5C 530.086,459.854 526.92,456.854 524,453.5C 522.076,449.531 519.909,445.697 517.5,442C 515.167,441.667 512.833,441.333 510.5,441C 507.391,436.512 503.058,434.512 497.5,435C 495.345,432.423 492.679,430.589 489.5,429.5C 482.279,427.553 475.279,425.053 468.5,422C 462.564,420.861 456.564,420.195 450.5,420C 447.911,418.803 445.244,417.803 442.5,417C 436.722,416.906 431.056,416.239 425.5,415C 414.374,413.962 403.374,414.628 392.5,417C 391.027,417.71 390.36,418.876 390.5,420.5C 386.486,420.334 382.486,420.501 378.5,421C 377.387,423.621 376.054,426.121 374.5,428.5C 372.242,429.799 369.908,430.799 367.5,431.5C 367.5,433.5 367.5,435.5 367.5,437.5C 366.167,437.833 364.833,438.167 363.5,438.5C 363.5,435.167 363.5,431.833 363.5,428.5C 366.841,427.998 369.841,426.664 372.5,424.5C 373.466,422.604 373.799,420.604 373.5,418.5C 378.119,417.686 382.786,417.353 387.5,417.5C 387.5,416.5 387.5,415.5 387.5,414.5C 399.789,411.83 412.455,410.997 425.5,412C 444.309,415.91 463.309,419.41 482.5,422.5C 482.5,423.5 482.5,424.5 482.5,425.5C 488.21,424.931 493.543,425.931 498.5,428.5C 498.5,429.5 498.5,430.5 498.5,431.5C 501.518,431.335 504.518,431.502 507.5,432C 509.158,433.663 511.158,434.496 513.5,434.5C 513.5,435.833 513.5,437.167 513.5,438.5C 516.466,438.11 519.132,438.777 521.5,440.5C 523.257,444.216 524.924,447.883 526.5,451.5C 529.957,451.96 531.623,453.96 531.5,457.5C 535.877,458.218 538.21,460.885 538.5,465.5C 539.5,465.5 540.5,465.5 541.5,465.5C 541.215,467.288 541.548,468.955 542.5,470.5C 545.599,473.455 548.933,476.122 552.5,478.5C 553.491,482.445 553.824,486.445 553.5,490.5 Z"/></g>
<g><path style="opacity:1" fill="#b00a05" d="M 549.5,488.5 C 548.29,488.068 547.29,487.401 546.5,486.5C 546.029,485.099 545.362,483.766 544.5,482.5C 539.682,479.893 536.516,475.893 535,470.5C 531.353,467.687 527.853,464.687 524.5,461.5C 524.704,462.529 524.204,463.529 523,464.5C 521.184,463.671 519.351,462.837 517.5,462C 518.337,460.989 518.67,459.822 518.5,458.5C 519.675,458.719 520.675,458.386 521.5,457.5C 520.527,454.221 519.027,451.221 517,448.5C 511.744,446.034 506.744,443.034 502,439.5C 501.167,440.5 500.333,441.5 499.5,442.5C 495.356,439.524 491.356,436.357 487.5,433C 483.384,434.423 480.051,433.423 477.5,430C 472.833,428 468.167,426 463.5,424C 459.522,423.282 455.689,423.782 452,425.5C 448.38,423.274 444.547,421.44 440.5,420C 437.145,419.454 433.812,419.621 430.5,420.5C 426.561,419.287 422.561,418.287 418.5,417.5C 412.306,418.412 405.973,418.578 399.5,418C 395.676,420.632 391.676,423.132 387.5,425.5C 385.249,424.135 383.249,424.469 381.5,426.5C 379.992,430.017 377.659,432.851 374.5,435C 375.056,435.383 375.389,435.883 375.5,436.5C 373.052,437.473 370.385,437.806 367.5,437.5C 367.5,435.5 367.5,433.5 367.5,431.5C 369.908,430.799 372.242,429.799 374.5,428.5C 376.054,426.121 377.387,423.621 378.5,421C 382.486,420.501 386.486,420.334 390.5,420.5C 390.36,418.876 391.027,417.71 392.5,417C 403.374,414.628 414.374,413.962 425.5,415C 431.056,416.239 436.722,416.906 442.5,417C 445.244,417.803 447.911,418.803 450.5,420C 456.564,420.195 462.564,420.861 468.5,422C 475.279,425.053 482.279,427.553 489.5,429.5C 492.679,430.589 495.345,432.423 497.5,435C 503.058,434.512 507.391,436.512 510.5,441C 512.833,441.333 515.167,441.667 517.5,442C 519.909,445.697 522.076,449.531 524,453.5C 526.92,456.854 530.086,459.854 533.5,462.5C 536.697,470.933 542.197,477.266 550,481.5C 550.796,484.039 550.629,486.372 549.5,488.5 Z"/></g>
<g><path style="opacity:1" fill="#a80a05" d="M 546.5,486.5 C 530.689,478.428 514.689,470.595 498.5,463C 472.219,451.24 444.886,442.907 416.5,438C 402.868,436.689 389.201,436.189 375.5,436.5C 375.389,435.883 375.056,435.383 374.5,435C 377.659,432.851 379.992,430.017 381.5,426.5C 383.249,424.469 385.249,424.135 387.5,425.5C 391.676,423.132 395.676,420.632 399.5,418C 405.973,418.578 412.306,418.412 418.5,417.5C 422.561,418.287 426.561,419.287 430.5,420.5C 433.812,419.621 437.145,419.454 440.5,420C 444.547,421.44 448.38,423.274 452,425.5C 455.689,423.782 459.522,423.282 463.5,424C 468.167,426 472.833,428 477.5,430C 480.051,433.423 483.384,434.423 487.5,433C 491.356,436.357 495.356,439.524 499.5,442.5C 500.333,441.5 501.167,440.5 502,439.5C 506.744,443.034 511.744,446.034 517,448.5C 519.027,451.221 520.527,454.221 521.5,457.5C 520.675,458.386 519.675,458.719 518.5,458.5C 518.67,459.822 518.337,460.989 517.5,462C 519.351,462.837 521.184,463.671 523,464.5C 524.204,463.529 524.704,462.529 524.5,461.5C 527.853,464.687 531.353,467.687 535,470.5C 536.516,475.893 539.682,479.893 544.5,482.5C 545.362,483.766 546.029,485.099 546.5,486.5 Z"/></g>
<g><path style="opacity:1" fill="#4e0101" d="M 615.5,502.5 C 615.389,503.117 615.056,503.617 614.5,504C 612.527,504.495 610.527,504.662 608.5,504.5C 608.336,501.813 608.503,499.146 609,496.5C 611.041,495.577 613.208,495.244 615.5,495.5C 615.5,497.833 615.5,500.167 615.5,502.5 Z"/></g>
<g><path style="opacity:1" fill="#b40601" d="M 608.5,494.5 C 612.298,493.517 616.298,493.183 620.5,493.5C 620.5,497.167 620.5,500.833 620.5,504.5C 615.544,505.69 610.544,506.69 605.5,507.5C 605.198,504.941 605.532,502.607 606.5,500.5C 606.157,502.483 606.824,503.817 608.5,504.5C 610.527,504.662 612.527,504.495 614.5,504C 615.056,503.617 615.389,503.117 615.5,502.5C 616.818,501.243 618.151,499.909 619.5,498.5C 618.147,497.476 617.48,496.143 617.5,494.5C 614.5,494.5 611.5,494.5 608.5,494.5 Z"/></g>
<g><path style="opacity:1" fill="#8b0301" d="M 608.5,494.5 C 611.5,494.5 614.5,494.5 617.5,494.5C 617.48,496.143 618.147,497.476 619.5,498.5C 618.151,499.909 616.818,501.243 615.5,502.5C 615.5,500.167 615.5,497.833 615.5,495.5C 613.208,495.244 611.041,495.577 609,496.5C 608.503,499.146 608.336,501.813 608.5,504.5C 606.824,503.817 606.157,502.483 606.5,500.5C 606.595,498.214 607.262,496.214 608.5,494.5 Z"/></g>
<g><path style="opacity:1" fill="#200100" d="M 610.5,497.5 C 611.833,497.5 613.167,497.5 614.5,497.5C 614.838,501.151 613.172,502.817 609.5,502.5C 609.366,500.708 609.699,499.042 610.5,497.5 Z"/></g>
</svg>
